<?xml version="1.0" standalone="no"?>
<!DOCTYPE svg PUBLIC "-//W3C//DTD SVG 20010904//EN"
 "http://www.w3.org/TR/2001/REC-SVG-20010904/DTD/svg10.dtd">
<svg version="1.0" xmlns="http://www.w3.org/2000/svg"
 width="260.000000pt" height="260.000000pt" viewBox="0 0 260.000000 260.000000"
 preserveAspectRatio="xMidYMid meet">
<metadata>
Created by potrace 1.11, written by Peter Selinger 2001-2013
</metadata>
<g transform="translate(0.000000,260.000000) scale(0.100000,-0.100000)"
fill="#000000" stroke="none">
<path d="M625 2190 c-5 -8 0 -49 9 -76 6 -19 38 -38 109 -64 l27 -10 0 -212
c2 -684 -1 -1272 -5 -1276 -2 -3 -28 -9 -56 -13 -64 -10 -89 -32 -89 -75 l0
-33 298 2 297 2 -3 35 c-3 44 -10 50 -69 65 l-48 12 -5 824 -5 824 -228 0
c-126 0 -230 -2 -232 -5z"/>
<path d="M1330 1525 c0 -61 26 -82 115 -91 53 -5 69 -27 49 -66 -12 -23 -194
-217 -328 -349 -4 -4 35 -73 85 -155 51 -82 111 -180 135 -219 24 -38 64 -103
89 -143 l45 -72 226 1 225 1 -4 35 c-7 46 -32 65 -102 75 -20 3 -35 23 -171
233 -39 61 -110 170 -158 243 -47 73 -86 137 -86 142 0 10 225 236 255 255 11
7 43 16 70 19 93 12 108 23 119 89 l5 27 -285 0 -284 0 0 -25z"/>
</g>
</svg>
