<?xml version="1.0" encoding="utf-8"?>
<!-- Generator: Adobe Illustrator 18.1.0, SVG Export Plug-In . SVG Version: 6.00 Build 0)  -->
<svg version="1.1" id="Ebene_1" xmlns="http://www.w3.org/2000/svg" xmlns:xlink="http://www.w3.org/1999/xlink" x="0px" y="0px"
	 viewBox="0 0 387.8 121" enable-background="new 0 0 387.8 121" xml:space="preserve">
<rect x="726.7" y="621.4" fill="#001E8C" width="500" height="500"/>
<rect x="1511.7" y="-162" fill="#001E8C" width="499.1" height="500"/>
<path fill="#001E8C" d="M787.4,119.7c0-2.9,1-4.8,4.4-5.4l6.1-0.9V12.2l-5.8-2c-3.4-1.2-4.4-2.9-4.4-6.1V2h31.4v111.5l4.1,0.7
	c3.7,0.9,4.4,2.5,4.4,5.4v1.4h-40.3V119.7z M842.4,63.2c2.4-2.7,5.1-5.6,5.1-7.3c0-1.5-0.8-2.4-4.4-2.7l-2.4-0.2
	c-3.9-0.3-5.1-2.5-5.1-6.1v-1.4h37.9v1.4c0,3.1-1.2,5.3-5.1,5.9l-7,0.9c-2.7,2.2-16.5,15.6-18.4,18.2l26.9,41.6l4.1,0.7
	c3.6,0.7,4.4,2.5,4.4,5.4v1.4h-30.3l-24.1-39.3L842.4,63.2z"/>
<path fill="#001E8C" d="M885.6,119.7c0-2.9,1.4-4.8,4.8-5.4l5.9-0.7V54.4l-6.3-1.4c-3.6-1-4.4-2.9-4.4-6.1v-1.4h31.8v68l7,0.7
	c3.6,0.5,4.2,2.5,4.2,5.4v1.4h-43V119.7z M895.3,17c0-6.3,5.3-11.4,11.4-11.4c6.1,0,11.2,5.1,11.2,11.4c0,6.1-5.1,11.2-11.2,11.2
	C900.6,28.2,895.3,23.1,895.3,17z"/>
<path fill="#001E8C" d="M936,119.7c0-2.9,0.9-4.8,4.4-5.4l6.3-0.7V54.4l-5.9-1.4c-3.6-1-4.8-2.9-4.8-6.1v-1.4h29.8
	c1.4,7.8,2,16.1,2,24.6c3.4-15.5,12.9-26.7,25.8-26.7h0.7V50c0,14.6-3.4,16.8-14.8,16.8c-9.5,0-11.7,2-11.7,17.7V113l11.6,0.8
	c3.7,0.3,4.4,2.6,4.4,5.8v1.4H936V119.7z"/>
<path fill="#001E8C" d="M1038.8,43.5c22.8,0,39.9,13.3,39.9,38.8c0,25.5-18.5,40.8-41.3,40.8c-23,0-40.1-13.9-40.1-39.4
	C997.4,58.1,1015.9,43.5,1038.8,43.5z M1055,83c0-27.2-5.1-34.3-16.8-34.3c-11.9,0-16.8,7.1-16.8,34.3s4.2,35,16.8,35
	C1049.7,118,1055,110.2,1055,83z"/>
<path fill="#001E8C" d="M1082.2,119.7c0-2.9,1-4.8,4.8-5.4l6-0.7V54.4l-6-1.4c-3.6-1-4.8-2.9-4.8-6.1v-1.4h29.8
	c0.8,5.3,1.4,11.7,1.7,18.4c3.2-10.5,13.8-20.4,26.9-20.4c15.3,0,23.5,8.2,23.5,24.8v45.2l6.5,0.7c3.7,0.7,4.8,2.5,4.8,5.4v1.4h-42
	v-1.4c0-2.9,1-4.6,4.8-5.4l4.8-0.7V71.9c0-12.1-4.2-16.3-11.6-16.3c-8.2,0-17.2,7.8-17.2,24.3v33.7l5.8,0.7c4.1,0.7,4.8,2.5,4.8,5.4
	v1.4h-42.3V119.7z"/>
<path fill="#001E8C" d="M0,117.6c0-2.9,1-4.8,4.4-5.4l6.1-0.9V10.2l-5.8-2C1.4,7,0.3,5.3,0.3,2V0h31.4v111.5l4.1,0.7
	c3.7,0.9,4.4,2.5,4.4,5.4v1.4H0V117.6z M55.1,61.2c2.4-2.7,5.1-5.6,5.1-7.3c0-1.5-0.8-2.4-4.4-2.7L53.4,51c-3.9-0.3-5.1-2.5-5.1-6.1
	v-1.4h37.9v1.4c0,3.1-1.2,5.3-5.1,5.9l-7,0.9c-2.7,2.2-16.5,15.6-18.4,18.2l26.9,41.6l4.1,0.7c3.6,0.7,4.4,2.5,4.4,5.4v1.4H60.9
	L36.7,79.7L55.1,61.2z"/>
<path fill="#001E8C" d="M98.3,117.6c0-2.9,1.4-4.8,4.8-5.4l5.9-0.7V52.4l-6.3-1.4c-3.6-1-4.4-2.9-4.4-6.1v-1.4h31.8v68l7,0.7
	c3.6,0.5,4.2,2.5,4.2,5.4v1.4h-43V117.6z M108,15c0-6.3,5.3-11.4,11.4-11.4c6.1,0,11.2,5.1,11.2,11.4c0,6.1-5.1,11.2-11.2,11.2
	C113.2,26.2,108,21.1,108,15z"/>
<path fill="#001E8C" d="M148.6,117.6c0-2.9,0.9-4.8,4.4-5.4l6.3-0.7V52.4l-5.9-1.4c-3.6-1-4.8-2.9-4.8-6.1v-1.4h29.8
	c1.4,7.8,2,16.1,2,24.6c3.4-15.5,12.9-26.7,25.8-26.7h0.7v6.5c0,14.6-3.4,16.8-14.8,16.8c-9.5,0-11.7,2-11.7,17.7V111l11.6,0.8
	c3.7,0.3,4.4,2.6,4.4,5.8v1.4h-47.8V117.6z"/>
<path fill="#001E8C" d="M251.5,41.5c22.8,0,39.9,13.3,39.9,38.8c0,25.5-18.5,40.8-41.3,40.8c-23,0-40.1-13.9-40.1-39.4
	C210,56.1,228.5,41.5,251.5,41.5z M267.6,80.9c0-27.2-5.1-34.3-16.8-34.3c-11.9,0-16.8,7.1-16.8,34.3s4.2,35,16.8,35
	C262.4,115.9,267.6,108.1,267.6,80.9z"/>
<path fill="#001E8C" d="M294.8,117.6c0-2.9,1-4.8,4.8-5.4l6-0.7V52.4l-6-1.4c-3.6-1-4.8-2.9-4.8-6.1v-1.4h29.8
	c0.8,5.3,1.4,11.7,1.7,18.4c3.2-10.5,13.8-20.4,26.9-20.4c15.3,0,23.5,8.2,23.5,24.8v45.2l6.5,0.7c3.7,0.7,4.8,2.5,4.8,5.4v1.4h-42
	v-1.4c0-2.9,1-4.6,4.8-5.4l4.8-0.7V69.9c0-12.1-4.2-16.3-11.6-16.3c-8.2,0-17.2,7.8-17.2,24.3v33.7l5.8,0.7c4.1,0.7,4.8,2.5,4.8,5.4
	v1.4h-42.3V117.6z"/>
<path fill="#FFFFFF" d="M0,300.6c0-2.9,1-4.8,4.4-5.4l6.1-0.9V193.2l-5.8-2c-3.4-1.2-4.4-2.9-4.4-6.1v-2h31.4v111.5l4.1,0.7
	c3.7,0.9,4.4,2.5,4.4,5.4v1.4H0V300.6z M55.1,244.2c2.4-2.7,5.1-5.6,5.1-7.3c0-1.5-0.8-2.4-4.4-2.7l-2.4-0.2
	c-3.9-0.3-5.1-2.5-5.1-6.1v-1.4h37.9v1.4c0,3.1-1.2,5.3-5.1,5.9l-7,0.9c-2.7,2.2-16.5,15.6-18.4,18.2l26.9,41.6l4.1,0.7
	c3.6,0.7,4.4,2.5,4.4,5.4v1.4H60.9l-24.1-39.3L55.1,244.2z"/>
<path fill="#FFFFFF" d="M98.3,300.6c0-2.9,1.4-4.8,4.8-5.4l5.9-0.7v-59.2l-6.3-1.4c-3.6-1-4.4-2.9-4.4-6.1v-1.4h31.8v68l7,0.7
	c3.6,0.5,4.2,2.5,4.2,5.4v1.4h-43V300.6z M108,198c0-6.3,5.3-11.4,11.4-11.4c6.1,0,11.2,5.1,11.2,11.4c0,6.1-5.1,11.2-11.2,11.2
	C113.2,209.2,108,204.1,108,198z"/>
<path fill="#FFFFFF" d="M148.6,300.6c0-2.9,0.9-4.8,4.4-5.4l6.3-0.7v-59.2l-5.9-1.4c-3.6-1-4.8-2.9-4.8-6.1v-1.4h29.8
	c1.4,7.8,2,16.1,2,24.6c3.4-15.5,12.9-26.7,25.8-26.7h0.7v6.5c0,14.6-3.4,16.8-14.8,16.8c-9.5,0-11.7,2-11.7,17.7V294l11.6,0.8
	c3.7,0.3,4.4,2.6,4.4,5.8v1.4h-47.8V300.6z"/>
<path fill="#FFFFFF" d="M251.5,224.5c22.8,0,39.9,13.3,39.9,38.8c0,25.5-18.5,40.8-41.3,40.8c-23,0-40.1-13.9-40.1-39.4
	C210,239.1,228.5,224.5,251.5,224.5z M267.6,263.9c0-27.2-5.1-34.3-16.8-34.3c-11.9,0-16.8,7.1-16.8,34.3s4.2,35,16.8,35
	C262.4,298.9,267.6,291.1,267.6,263.9z"/>
<path fill="#FFFFFF" d="M294.8,300.6c0-2.9,1-4.8,4.8-5.4l6-0.7v-59.2l-6-1.4c-3.6-1-4.8-2.9-4.8-6.1v-1.4h29.8
	c0.8,5.3,1.4,11.7,1.7,18.4c3.2-10.5,13.8-20.4,26.9-20.4c15.3,0,23.5,8.2,23.5,24.8v45.2l6.5,0.7c3.7,0.7,4.8,2.5,4.8,5.4v1.4h-42
	v-1.4c0-2.9,1-4.6,4.8-5.4l4.8-0.7v-41.6c0-12.1-4.2-16.3-11.6-16.3c-8.2,0-17.2,7.8-17.2,24.3v33.7l5.8,0.7
	c4.1,0.7,4.8,2.5,4.8,5.4v1.4h-42.3V300.6z"/>
<g>
	<path fill="#001E8C" d="M801.1,152.8h-9.8v10.3h-3.1v-23.4h14.5v2.5h-11.4v8h9.8V152.8z"/>
	<path fill="#001E8C" d="M813.9,148.4c-0.4-0.1-0.9-0.1-1.5-0.1c-1.9,0-3.3,0.8-4,2.5v12.3h-3v-17.4h2.9l0,2c1-1.6,2.4-2.3,4.1-2.3
		c0.6,0,1,0.1,1.3,0.2V148.4z"/>
	<path fill="#001E8C" d="M815.5,154.3c0-1.7,0.3-3.2,1-4.6c0.7-1.4,1.6-2.4,2.8-3.1c1.2-0.7,2.6-1.1,4.1-1.1c2.4,0,4.3,0.8,5.7,2.5
		c1.5,1.6,2.2,3.8,2.2,6.5v0.2c0,1.7-0.3,3.2-1,4.5c-0.6,1.3-1.6,2.4-2.8,3.1c-1.2,0.7-2.6,1.1-4.1,1.1c-2.4,0-4.3-0.8-5.7-2.5
		s-2.2-3.8-2.2-6.5V154.3z M818.5,154.6c0,1.9,0.4,3.5,1.3,4.6c0.9,1.2,2.1,1.7,3.6,1.7c1.5,0,2.7-0.6,3.6-1.8
		c0.9-1.2,1.3-2.8,1.3-5c0-1.9-0.5-3.4-1.4-4.6c-0.9-1.2-2.1-1.8-3.6-1.8c-1.5,0-2.6,0.6-3.5,1.7C819,150.8,818.5,152.4,818.5,154.6
		z"/>
	<path fill="#001E8C" d="M837.9,145.7l0.1,1.9c1.3-1.5,3-2.2,5.2-2.2c2.4,0,4.1,0.9,5,2.8c0.6-0.8,1.3-1.5,2.3-2
		c0.9-0.5,2-0.8,3.3-0.8c3.8,0,5.7,2,5.8,6v11.6h-3v-11.5c0-1.2-0.3-2.2-0.9-2.8c-0.6-0.6-1.5-0.9-2.9-0.9c-1.1,0-2,0.3-2.7,1
		c-0.7,0.7-1.2,1.5-1.3,2.7v11.5h-3v-11.4c0-2.5-1.2-3.8-3.7-3.8c-1.9,0-3.3,0.8-4,2.5v12.7h-3v-17.4H837.9z"/>
	<path fill="#001E8C" d="M880.4,148.4c-0.4-0.1-0.9-0.1-1.5-0.1c-1.9,0-3.3,0.8-4,2.5v12.3h-3v-17.4h2.9l0,2c1-1.6,2.4-2.3,4.1-2.3
		c0.6,0,1,0.1,1.3,0.2V148.4z"/>
	<path fill="#001E8C" d="M890,163.4c-2.4,0-4.3-0.8-5.7-2.3c-1.5-1.5-2.2-3.6-2.2-6.2v-0.5c0-1.7,0.3-3.3,1-4.6
		c0.7-1.4,1.6-2.4,2.8-3.2c1.2-0.8,2.5-1.1,3.8-1.1c2.3,0,4,0.7,5.3,2.2c1.3,1.5,1.9,3.6,1.9,6.4v1.2H885c0,1.7,0.5,3.1,1.5,4.1
		c1,1.1,2.2,1.6,3.7,1.6c1,0,1.9-0.2,2.7-0.6c0.7-0.4,1.4-1,1.9-1.7l1.8,1.4C895.1,162.3,892.9,163.4,890,163.4z M889.7,147.9
		c-1.2,0-2.2,0.4-3,1.3c-0.8,0.9-1.3,2.1-1.5,3.7h8.7v-0.2c-0.1-1.5-0.5-2.7-1.2-3.5C891.9,148.3,890.9,147.9,889.7,147.9z"/>
	<path fill="#001E8C" d="M901.7,163.1V148H899v-2.3h2.7V144c0-1.9,0.5-3.3,1.5-4.3c1-1,2.4-1.5,4.2-1.5c0.7,0,1.4,0.1,2,0.3
		l-0.2,2.4c-0.5-0.1-1-0.1-1.6-0.1c-1,0-1.7,0.3-2.2,0.8c-0.5,0.6-0.8,1.4-0.8,2.4v1.8h3.7v2.3h-3.7v15.1H901.7z"/>
	<path fill="#001E8C" d="M922.4,161.4c-1.2,1.4-2.9,2-5.1,2c-1.9,0-3.3-0.5-4.2-1.6c-1-1.1-1.5-2.7-1.5-4.8v-11.3h3V157
		c0,2.6,1.1,3.9,3.2,3.9c2.3,0,3.8-0.8,4.5-2.5v-12.6h3v17.4h-2.8L922.4,161.4z"/>
	<path fill="#001E8C" d="M929.1,154.3c0-2.7,0.6-4.9,1.9-6.5c1.3-1.6,2.9-2.4,5-2.4c2.1,0,3.8,0.7,5,2.2l0.1-1.9h2.7v16.9
		c0,2.2-0.7,4-2,5.3c-1.3,1.3-3.1,1.9-5.4,1.9c-1.3,0-2.5-0.3-3.7-0.8c-1.2-0.5-2.1-1.3-2.7-2.2l1.5-1.8c1.3,1.6,2.8,2.4,4.7,2.4
		c1.4,0,2.6-0.4,3.4-1.2c0.8-0.8,1.2-2,1.2-3.4v-1.5c-1.2,1.4-2.8,2.1-4.9,2.1c-2,0-3.7-0.8-4.9-2.5
		C929.7,159.3,929.1,157.1,929.1,154.3z M932.1,154.6c0,2,0.4,3.5,1.2,4.6c0.8,1.1,1.9,1.7,3.4,1.7c1.9,0,3.2-0.9,4.1-2.6v-7.9
		c-0.9-1.7-2.3-2.5-4.1-2.5c-1.4,0-2.6,0.6-3.4,1.7C932.5,150.8,932.1,152.4,932.1,154.6z"/>
	<path fill="#001E8C" d="M955.4,163.4c-2.4,0-4.3-0.8-5.7-2.3c-1.5-1.5-2.2-3.6-2.2-6.2v-0.5c0-1.7,0.3-3.3,1-4.6
		c0.7-1.4,1.6-2.4,2.8-3.2c1.2-0.8,2.5-1.1,3.8-1.1c2.3,0,4,0.7,5.3,2.2c1.3,1.5,1.9,3.6,1.9,6.4v1.2h-11.8c0,1.7,0.5,3.1,1.5,4.1
		c1,1.1,2.2,1.6,3.7,1.6c1,0,1.9-0.2,2.7-0.6c0.7-0.4,1.4-1,1.9-1.7l1.8,1.4C960.5,162.3,958.3,163.4,955.4,163.4z M955,147.9
		c-1.2,0-2.2,0.4-3,1.3c-0.8,0.9-1.3,2.1-1.5,3.7h8.7v-0.2c-0.1-1.5-0.5-2.7-1.2-3.5C957.3,148.3,956.3,147.9,955,147.9z"/>
	<path fill="#001E8C" d="M972.8,163.4c-2.4,0-4.3-0.8-5.7-2.3c-1.5-1.5-2.2-3.6-2.2-6.2v-0.5c0-1.7,0.3-3.3,1-4.6
		c0.7-1.4,1.6-2.4,2.8-3.2c1.2-0.8,2.5-1.1,3.8-1.1c2.3,0,4,0.7,5.3,2.2c1.3,1.5,1.9,3.6,1.9,6.4v1.2h-11.8c0,1.7,0.5,3.1,1.5,4.1
		c1,1.1,2.2,1.6,3.7,1.6c1,0,1.9-0.2,2.7-0.6c0.7-0.4,1.4-1,1.9-1.7l1.8,1.4C977.9,162.3,975.7,163.4,972.8,163.4z M972.5,147.9
		c-1.2,0-2.2,0.4-3,1.3c-0.8,0.9-1.3,2.1-1.5,3.7h8.7v-0.2c-0.1-1.5-0.5-2.7-1.2-3.5C974.7,148.3,973.7,147.9,972.5,147.9z"/>
	<path fill="#001E8C" d="M993.1,158.5c0-0.8-0.3-1.4-0.9-1.9c-0.6-0.4-1.7-0.8-3.2-1.1c-1.5-0.3-2.7-0.7-3.6-1.2
		c-0.9-0.4-1.5-1-2-1.6c-0.4-0.6-0.6-1.4-0.6-2.2c0-1.4,0.6-2.6,1.8-3.6c1.2-1,2.7-1.5,4.6-1.5c2,0,3.6,0.5,4.8,1.5
		c1.2,1,1.8,2.3,1.8,3.9h-3c0-0.8-0.3-1.5-1-2.1c-0.7-0.6-1.6-0.9-2.6-0.9c-1.1,0-1.9,0.2-2.5,0.7c-0.6,0.5-0.9,1.1-0.9,1.8
		c0,0.7,0.3,1.3,0.9,1.6c0.6,0.4,1.6,0.7,3.1,1c1.5,0.3,2.7,0.7,3.6,1.2c0.9,0.5,1.6,1,2,1.7c0.4,0.6,0.7,1.4,0.7,2.4
		c0,1.6-0.6,2.8-1.9,3.7c-1.2,0.9-2.9,1.4-4.8,1.4c-1.4,0-2.6-0.2-3.7-0.7c-1.1-0.5-1.9-1.2-2.5-2.1c-0.6-0.9-0.9-1.8-0.9-2.9h3
		c0.1,1,0.5,1.8,1.2,2.4c0.7,0.6,1.7,0.9,2.9,0.9c1.1,0,2-0.2,2.7-0.7C992.8,159.9,993.1,159.3,993.1,158.5z"/>
	<path fill="#001E8C" d="M1012.1,141.5v4.2h3.2v2.3h-3.2v10.8c0,0.7,0.1,1.2,0.4,1.6c0.3,0.3,0.8,0.5,1.5,0.5c0.3,0,0.8-0.1,1.4-0.2
		v2.4c-0.8,0.2-1.5,0.3-2.3,0.3c-1.3,0-2.3-0.4-3-1.2s-1-1.9-1-3.4V148h-3.2v-2.3h3.2v-4.2H1012.1z"/>
	<path fill="#001E8C" d="M1017.7,154.3c0-1.7,0.3-3.2,1-4.6c0.7-1.4,1.6-2.4,2.8-3.1c1.2-0.7,2.6-1.1,4.1-1.1c2.4,0,4.3,0.8,5.7,2.5
		c1.5,1.6,2.2,3.8,2.2,6.5v0.2c0,1.7-0.3,3.2-1,4.5c-0.6,1.3-1.6,2.4-2.8,3.1c-1.2,0.7-2.6,1.1-4.1,1.1c-2.4,0-4.3-0.8-5.7-2.5
		s-2.2-3.8-2.2-6.5V154.3z M1020.7,154.6c0,1.9,0.4,3.5,1.3,4.6c0.9,1.2,2.1,1.7,3.6,1.7c1.5,0,2.7-0.6,3.6-1.8
		c0.9-1.2,1.3-2.8,1.3-5c0-1.9-0.5-3.4-1.4-4.6c-0.9-1.2-2.1-1.8-3.6-1.8c-1.5,0-2.6,0.6-3.5,1.7
		C1021.2,150.8,1020.7,152.4,1020.7,154.6z"/>
	<path fill="#001E8C" d="M1055.5,158.5c0-0.8-0.3-1.4-0.9-1.9c-0.6-0.4-1.7-0.8-3.2-1.1c-1.5-0.3-2.7-0.7-3.6-1.2
		c-0.9-0.4-1.5-1-2-1.6c-0.4-0.6-0.6-1.4-0.6-2.2c0-1.4,0.6-2.6,1.8-3.6c1.2-1,2.7-1.5,4.6-1.5c2,0,3.6,0.5,4.8,1.5
		c1.2,1,1.8,2.3,1.8,3.9h-3c0-0.8-0.3-1.5-1-2.1c-0.7-0.6-1.6-0.9-2.6-0.9c-1.1,0-1.9,0.2-2.5,0.7c-0.6,0.5-0.9,1.1-0.9,1.8
		c0,0.7,0.3,1.3,0.9,1.6c0.6,0.4,1.6,0.7,3.1,1c1.5,0.3,2.7,0.7,3.6,1.2c0.9,0.5,1.6,1,2,1.7c0.4,0.6,0.7,1.4,0.7,2.4
		c0,1.6-0.6,2.8-1.9,3.7c-1.2,0.9-2.9,1.4-4.8,1.4c-1.4,0-2.6-0.2-3.7-0.7c-1.1-0.5-1.9-1.2-2.5-2.1c-0.6-0.9-0.9-1.8-0.9-2.9h3
		c0.1,1,0.5,1.8,1.2,2.4c0.7,0.6,1.7,0.9,2.9,0.9c1.1,0,2-0.2,2.7-0.7C1055.2,159.9,1055.5,159.3,1055.5,158.5z"/>
	<path fill="#001E8C" d="M1066.4,141.5v4.2h3.2v2.3h-3.2v10.8c0,0.7,0.1,1.2,0.4,1.6c0.3,0.3,0.8,0.5,1.5,0.5c0.3,0,0.8-0.1,1.4-0.2
		v2.4c-0.8,0.2-1.5,0.3-2.3,0.3c-1.3,0-2.3-0.4-3-1.2c-0.7-0.8-1-1.9-1-3.4V148h-3.2v-2.3h3.2v-4.2H1066.4z"/>
	<path fill="#001E8C" d="M1083.8,161.4c-1.2,1.4-2.9,2-5.1,2c-1.9,0-3.3-0.5-4.2-1.6c-1-1.1-1.5-2.7-1.5-4.8v-11.3h3V157
		c0,2.6,1.1,3.9,3.2,3.9c2.3,0,3.8-0.8,4.5-2.5v-12.6h3v17.4h-2.8L1083.8,161.4z"/>
	<path fill="#001E8C" d="M1090.5,154.3c0-2.7,0.6-4.8,1.9-6.4c1.3-1.6,2.9-2.4,5-2.4c2,0,3.6,0.7,4.8,2.1v-9.1h3v24.6h-2.7l-0.1-1.9
		c-1.2,1.5-2.8,2.2-5,2.2c-2,0-3.7-0.8-4.9-2.5c-1.3-1.6-1.9-3.8-1.9-6.5V154.3z M1093.5,154.6c0,2,0.4,3.5,1.2,4.6
		c0.8,1.1,1.9,1.7,3.4,1.7c1.9,0,3.3-0.8,4.1-2.5v-8c-0.9-1.6-2.3-2.5-4.1-2.5c-1.5,0-2.6,0.6-3.4,1.7
		C1093.9,150.8,1093.5,152.4,1093.5,154.6z"/>
	<path fill="#001E8C" d="M1117,163.4c-2.4,0-4.3-0.8-5.7-2.3c-1.5-1.5-2.2-3.6-2.2-6.2v-0.5c0-1.7,0.3-3.3,1-4.6
		c0.7-1.4,1.6-2.4,2.8-3.2c1.2-0.8,2.5-1.1,3.8-1.1c2.3,0,4,0.7,5.3,2.2c1.3,1.5,1.9,3.6,1.9,6.4v1.2H1112c0,1.7,0.5,3.1,1.5,4.1
		c1,1.1,2.2,1.6,3.7,1.6c1,0,1.9-0.2,2.7-0.6c0.7-0.4,1.4-1,1.9-1.7l1.8,1.4C1122,162.3,1119.9,163.4,1117,163.4z M1116.6,147.9
		c-1.2,0-2.2,0.4-3,1.3c-0.8,0.9-1.3,2.1-1.5,3.7h8.7v-0.2c-0.1-1.5-0.5-2.7-1.2-3.5C1118.8,148.3,1117.8,147.9,1116.6,147.9z"/>
	<path fill="#001E8C" d="M1130,145.7l0.1,2.2c1.3-1.7,3.1-2.5,5.2-2.5c3.7,0,5.5,2.1,5.6,6.2v11.5h-3v-11.5c0-1.3-0.3-2.2-0.9-2.8
		c-0.6-0.6-1.4-0.9-2.6-0.9c-1,0-1.8,0.3-2.5,0.8c-0.7,0.5-1.3,1.2-1.7,2v12.4h-3v-17.4H1130z"/>
	<path fill="#001E8C" d="M1149.3,141.5v4.2h3.2v2.3h-3.2v10.8c0,0.7,0.1,1.2,0.4,1.6c0.3,0.3,0.8,0.5,1.5,0.5c0.3,0,0.8-0.1,1.4-0.2
		v2.4c-0.8,0.2-1.5,0.3-2.3,0.3c-1.3,0-2.3-0.4-3-1.2c-0.7-0.8-1-1.9-1-3.4V148h-3.2v-2.3h3.2v-4.2H1149.3z"/>
	<path fill="#001E8C" d="M1166.1,158.5c0-0.8-0.3-1.4-0.9-1.9c-0.6-0.4-1.7-0.8-3.2-1.1c-1.5-0.3-2.7-0.7-3.6-1.2
		c-0.9-0.4-1.5-1-2-1.6c-0.4-0.6-0.6-1.4-0.6-2.2c0-1.4,0.6-2.6,1.8-3.6c1.2-1,2.7-1.5,4.6-1.5c2,0,3.6,0.5,4.8,1.5
		c1.2,1,1.8,2.3,1.8,3.9h-3c0-0.8-0.3-1.5-1-2.1c-0.7-0.6-1.6-0.9-2.6-0.9c-1.1,0-1.9,0.2-2.5,0.7c-0.6,0.5-0.9,1.1-0.9,1.8
		c0,0.7,0.3,1.3,0.9,1.6c0.6,0.4,1.6,0.7,3.1,1c1.5,0.3,2.7,0.7,3.6,1.2c0.9,0.5,1.6,1,2,1.7c0.4,0.6,0.7,1.4,0.7,2.4
		c0,1.6-0.6,2.8-1.9,3.7c-1.2,0.9-2.9,1.4-4.8,1.4c-1.4,0-2.6-0.2-3.7-0.7c-1.1-0.5-1.9-1.2-2.5-2.1c-0.6-0.9-0.9-1.8-0.9-2.9h3
		c0.1,1,0.5,1.8,1.2,2.4c0.7,0.6,1.7,0.9,2.9,0.9c1.1,0,2-0.2,2.7-0.7C1165.8,159.9,1166.1,159.3,1166.1,158.5z"/>
	<path fill="#001E8C" d="M1173,161.6c0-0.5,0.2-0.9,0.5-1.3c0.3-0.3,0.8-0.5,1.4-0.5c0.6,0,1.1,0.2,1.4,0.5c0.3,0.3,0.5,0.8,0.5,1.3
		c0,0.5-0.2,0.9-0.5,1.2c-0.3,0.3-0.8,0.5-1.4,0.5c-0.6,0-1.1-0.2-1.4-0.5C1173.2,162.5,1173,162,1173,161.6z"/>
</g>
<path fill="#FFFFFF" d="M1570.8,119.7c0-2.9,1-4.8,4.4-5.4l6.1-0.9V12.2l-5.8-2c-3.4-1.2-4.4-2.9-4.4-6.1V2h31.4v111.5l4.1,0.7
	c3.7,0.9,4.4,2.5,4.4,5.4v1.4h-40.3V119.7z M1625.9,63.2c2.4-2.7,5.1-5.6,5.1-7.3c0-1.5-0.8-2.4-4.4-2.7l-2.4-0.2
	c-3.9-0.3-5.1-2.5-5.1-6.1v-1.4h37.9v1.4c0,3.1-1.2,5.3-5.1,5.9l-7,0.9c-2.7,2.2-16.5,15.6-18.4,18.2l26.9,41.6l4.1,0.7
	c3.6,0.7,4.4,2.5,4.4,5.4v1.4h-30.3l-24.1-39.3L1625.9,63.2z"/>
<path fill="#FFFFFF" d="M1669.1,119.7c0-2.9,1.4-4.8,4.8-5.4l5.9-0.7V54.4l-6.3-1.4c-3.6-1-4.4-2.9-4.4-6.1v-1.4h31.8v68l7,0.7
	c3.6,0.5,4.2,2.5,4.2,5.4v1.4h-43V119.7z M1678.8,17c0-6.3,5.3-11.4,11.4-11.4c6.1,0,11.2,5.1,11.2,11.4c0,6.1-5.1,11.2-11.2,11.2
	C1684.1,28.2,1678.8,23.1,1678.8,17z"/>
<path fill="#FFFFFF" d="M1719.4,119.7c0-2.9,0.9-4.8,4.4-5.4l6.3-0.7V54.4l-5.9-1.4c-3.6-1-4.8-2.9-4.8-6.1v-1.4h29.8
	c1.4,7.8,2,16.1,2,24.6c3.4-15.5,12.9-26.7,25.8-26.7h0.7V50c0,14.6-3.4,16.8-14.8,16.8c-9.5,0-11.7,2-11.7,17.7V113l11.6,0.8
	c3.7,0.3,4.4,2.6,4.4,5.8v1.4h-47.8V119.7z"/>
<path fill="#FFFFFF" d="M1822.3,43.5c22.8,0,39.9,13.3,39.9,38.8c0,25.5-18.5,40.8-41.3,40.8c-23,0-40.1-13.9-40.1-39.4
	C1780.8,58.1,1799.3,43.5,1822.3,43.5z M1838.4,83c0-27.2-5.1-34.3-16.8-34.3c-11.9,0-16.8,7.1-16.8,34.3s4.2,35,16.8,35
	C1833.2,118,1838.4,110.2,1838.4,83z"/>
<path fill="#FFFFFF" d="M1865.6,119.7c0-2.9,1-4.8,4.8-5.4l6-0.7V54.4l-6-1.4c-3.6-1-4.8-2.9-4.8-6.1v-1.4h29.8
	c0.8,5.3,1.4,11.7,1.7,18.4c3.2-10.5,13.8-20.4,26.9-20.4c15.3,0,23.5,8.2,23.5,24.8v45.2l6.5,0.7c3.7,0.7,4.8,2.5,4.8,5.4v1.4h-42
	v-1.4c0-2.9,1-4.6,4.8-5.4l4.8-0.7V71.9c0-12.1-4.2-16.3-11.6-16.3c-8.2,0-17.2,7.8-17.2,24.3v33.7l5.8,0.7c4.1,0.7,4.8,2.5,4.8,5.4
	v1.4h-42.3V119.7z"/>
<g>
	<path fill="#FFFFFF" d="M1584.6,152.8h-9.8v10.3h-3.1v-23.4h14.5v2.5h-11.4v8h9.8V152.8z"/>
	<path fill="#FFFFFF" d="M1597.4,148.4c-0.4-0.1-0.9-0.1-1.5-0.1c-1.9,0-3.3,0.8-4,2.5v12.3h-3v-17.4h2.9l0,2c1-1.6,2.4-2.3,4.1-2.3
		c0.6,0,1,0.1,1.3,0.2V148.4z"/>
	<path fill="#FFFFFF" d="M1599,154.3c0-1.7,0.3-3.2,1-4.6c0.7-1.4,1.6-2.4,2.8-3.1c1.2-0.7,2.6-1.1,4.1-1.1c2.4,0,4.3,0.8,5.7,2.5
		c1.5,1.6,2.2,3.8,2.2,6.5v0.2c0,1.7-0.3,3.2-1,4.5c-0.6,1.3-1.6,2.4-2.8,3.1c-1.2,0.7-2.6,1.1-4.1,1.1c-2.4,0-4.3-0.8-5.7-2.5
		c-1.5-1.6-2.2-3.8-2.2-6.5V154.3z M1602,154.6c0,1.9,0.4,3.5,1.3,4.6c0.9,1.2,2.1,1.7,3.6,1.7c1.5,0,2.7-0.6,3.6-1.8
		c0.9-1.2,1.3-2.8,1.3-5c0-1.9-0.5-3.4-1.4-4.6c-0.9-1.2-2.1-1.8-3.6-1.8c-1.5,0-2.6,0.6-3.5,1.7
		C1602.4,150.8,1602,152.4,1602,154.6z"/>
	<path fill="#FFFFFF" d="M1621.3,145.7l0.1,1.9c1.3-1.5,3-2.2,5.2-2.2c2.4,0,4.1,0.9,5,2.8c0.6-0.8,1.3-1.5,2.3-2
		c0.9-0.5,2-0.8,3.3-0.8c3.8,0,5.7,2,5.8,6v11.6h-3v-11.5c0-1.2-0.3-2.2-0.9-2.8c-0.6-0.6-1.5-0.9-2.9-0.9c-1.1,0-2,0.3-2.7,1
		c-0.7,0.7-1.2,1.5-1.3,2.7v11.5h-3v-11.4c0-2.5-1.2-3.8-3.7-3.8c-1.9,0-3.3,0.8-4,2.5v12.7h-3v-17.4H1621.3z"/>
	<path fill="#FFFFFF" d="M1663.9,148.4c-0.4-0.1-0.9-0.1-1.5-0.1c-1.9,0-3.3,0.8-4,2.5v12.3h-3v-17.4h2.9l0,2c1-1.6,2.4-2.3,4.1-2.3
		c0.6,0,1,0.1,1.3,0.2V148.4z"/>
	<path fill="#FFFFFF" d="M1673.5,163.4c-2.4,0-4.3-0.8-5.7-2.3c-1.5-1.5-2.2-3.6-2.2-6.2v-0.5c0-1.7,0.3-3.3,1-4.6
		c0.7-1.4,1.6-2.4,2.8-3.2c1.2-0.8,2.5-1.1,3.8-1.1c2.3,0,4,0.7,5.3,2.2c1.3,1.5,1.9,3.6,1.9,6.4v1.2h-11.8c0,1.7,0.5,3.1,1.5,4.1
		c1,1.1,2.2,1.6,3.7,1.6c1,0,1.9-0.2,2.7-0.6c0.7-0.4,1.4-1,1.9-1.7l1.8,1.4C1678.6,162.3,1676.4,163.4,1673.5,163.4z M1673.1,147.9
		c-1.2,0-2.2,0.4-3,1.3c-0.8,0.9-1.3,2.1-1.5,3.7h8.7v-0.2c-0.1-1.5-0.5-2.7-1.2-3.5C1675.4,148.3,1674.4,147.9,1673.1,147.9z"/>
	<path fill="#FFFFFF" d="M1685.2,163.1V148h-2.7v-2.3h2.7V144c0-1.9,0.5-3.3,1.5-4.3c1-1,2.4-1.5,4.2-1.5c0.7,0,1.4,0.1,2,0.3
		l-0.2,2.4c-0.5-0.1-1-0.1-1.6-0.1c-1,0-1.7,0.3-2.2,0.8c-0.5,0.6-0.8,1.4-0.8,2.4v1.8h3.7v2.3h-3.7v15.1H1685.2z"/>
	<path fill="#FFFFFF" d="M1705.8,161.4c-1.2,1.4-2.9,2-5.1,2c-1.9,0-3.3-0.5-4.2-1.6c-1-1.1-1.5-2.7-1.5-4.8v-11.3h3V157
		c0,2.6,1.1,3.9,3.2,3.9c2.3,0,3.8-0.8,4.5-2.5v-12.6h3v17.4h-2.8L1705.8,161.4z"/>
	<path fill="#FFFFFF" d="M1712.5,154.3c0-2.7,0.6-4.9,1.9-6.5c1.3-1.6,2.9-2.4,5-2.4c2.1,0,3.8,0.7,5,2.2l0.1-1.9h2.7v16.9
		c0,2.2-0.7,4-2,5.3c-1.3,1.3-3.1,1.9-5.4,1.9c-1.3,0-2.5-0.3-3.7-0.8c-1.2-0.5-2.1-1.3-2.7-2.2l1.5-1.8c1.3,1.6,2.8,2.4,4.7,2.4
		c1.4,0,2.6-0.4,3.4-1.2c0.8-0.8,1.2-2,1.2-3.4v-1.5c-1.2,1.4-2.8,2.1-4.9,2.1c-2,0-3.7-0.8-4.9-2.5
		C1713.2,159.3,1712.5,157.1,1712.5,154.3z M1715.5,154.6c0,2,0.4,3.5,1.2,4.6c0.8,1.1,1.9,1.7,3.4,1.7c1.9,0,3.2-0.9,4.1-2.6v-7.9
		c-0.9-1.7-2.3-2.5-4.1-2.5c-1.4,0-2.6,0.6-3.4,1.7C1715.9,150.8,1715.5,152.4,1715.5,154.6z"/>
	<path fill="#FFFFFF" d="M1738.9,163.4c-2.4,0-4.3-0.8-5.7-2.3c-1.5-1.5-2.2-3.6-2.2-6.2v-0.5c0-1.7,0.3-3.3,1-4.6
		c0.7-1.4,1.6-2.4,2.8-3.2c1.2-0.8,2.5-1.1,3.8-1.1c2.3,0,4,0.7,5.3,2.2c1.3,1.5,1.9,3.6,1.9,6.4v1.2h-11.8c0,1.7,0.5,3.1,1.5,4.1
		c1,1.1,2.2,1.6,3.7,1.6c1,0,1.9-0.2,2.7-0.6c0.7-0.4,1.4-1,1.9-1.7l1.8,1.4C1744,162.3,1741.8,163.4,1738.9,163.4z M1738.5,147.9
		c-1.2,0-2.2,0.4-3,1.3c-0.8,0.9-1.3,2.1-1.5,3.7h8.7v-0.2c-0.1-1.5-0.5-2.7-1.2-3.5C1740.7,148.3,1739.7,147.9,1738.5,147.9z"/>
	<path fill="#FFFFFF" d="M1756.3,163.4c-2.4,0-4.3-0.8-5.7-2.3c-1.5-1.5-2.2-3.6-2.2-6.2v-0.5c0-1.7,0.3-3.3,1-4.6
		c0.7-1.4,1.6-2.4,2.8-3.2c1.2-0.8,2.5-1.1,3.8-1.1c2.3,0,4,0.7,5.3,2.2c1.3,1.5,1.9,3.6,1.9,6.4v1.2h-11.8c0,1.7,0.5,3.1,1.5,4.1
		c1,1.1,2.2,1.6,3.7,1.6c1,0,1.9-0.2,2.7-0.6c0.7-0.4,1.4-1,1.9-1.7l1.8,1.4C1761.4,162.3,1759.2,163.4,1756.3,163.4z M1755.9,147.9
		c-1.2,0-2.2,0.4-3,1.3c-0.8,0.9-1.3,2.1-1.5,3.7h8.7v-0.2c-0.1-1.5-0.5-2.7-1.2-3.5C1758.1,148.3,1757.2,147.9,1755.9,147.9z"/>
	<path fill="#FFFFFF" d="M1776.6,158.5c0-0.8-0.3-1.4-0.9-1.9c-0.6-0.4-1.7-0.8-3.2-1.1c-1.5-0.3-2.7-0.7-3.6-1.2
		c-0.9-0.4-1.5-1-2-1.6c-0.4-0.6-0.6-1.4-0.6-2.2c0-1.4,0.6-2.6,1.8-3.6c1.2-1,2.7-1.5,4.6-1.5c2,0,3.6,0.5,4.8,1.5
		c1.2,1,1.8,2.3,1.8,3.9h-3c0-0.8-0.3-1.5-1-2.1c-0.7-0.6-1.6-0.9-2.6-0.9c-1.1,0-1.9,0.2-2.5,0.7c-0.6,0.5-0.9,1.1-0.9,1.8
		c0,0.7,0.3,1.3,0.9,1.6c0.6,0.4,1.6,0.7,3.1,1c1.5,0.3,2.7,0.7,3.6,1.2c0.9,0.5,1.6,1,2,1.7c0.4,0.6,0.7,1.4,0.7,2.4
		c0,1.6-0.6,2.8-1.9,3.7c-1.2,0.9-2.9,1.4-4.8,1.4c-1.4,0-2.6-0.2-3.7-0.7c-1.1-0.5-1.9-1.2-2.5-2.1c-0.6-0.9-0.9-1.8-0.9-2.9h3
		c0.1,1,0.5,1.8,1.2,2.4c0.7,0.6,1.7,0.9,2.9,0.9c1.1,0,2-0.2,2.7-0.7C1776.3,159.9,1776.6,159.3,1776.6,158.5z"/>
	<path fill="#FFFFFF" d="M1795.6,141.5v4.2h3.2v2.3h-3.2v10.8c0,0.7,0.1,1.2,0.4,1.6c0.3,0.3,0.8,0.5,1.5,0.5c0.3,0,0.8-0.1,1.4-0.2
		v2.4c-0.8,0.2-1.5,0.3-2.3,0.3c-1.3,0-2.3-0.4-3-1.2c-0.7-0.8-1-1.9-1-3.4V148h-3.2v-2.3h3.2v-4.2H1795.6z"/>
	<path fill="#FFFFFF" d="M1801.2,154.3c0-1.7,0.3-3.2,1-4.6c0.7-1.4,1.6-2.4,2.8-3.1c1.2-0.7,2.6-1.1,4.1-1.1c2.4,0,4.3,0.8,5.7,2.5
		c1.5,1.6,2.2,3.8,2.2,6.5v0.2c0,1.7-0.3,3.2-1,4.5c-0.6,1.3-1.6,2.4-2.8,3.1c-1.2,0.7-2.6,1.1-4.1,1.1c-2.4,0-4.3-0.8-5.7-2.5
		c-1.5-1.6-2.2-3.8-2.2-6.5V154.3z M1804.2,154.6c0,1.9,0.4,3.5,1.3,4.6c0.9,1.2,2.1,1.7,3.6,1.7c1.5,0,2.7-0.6,3.6-1.8
		c0.9-1.2,1.3-2.8,1.3-5c0-1.9-0.5-3.4-1.4-4.6c-0.9-1.2-2.1-1.8-3.6-1.8c-1.5,0-2.6,0.6-3.5,1.7
		C1804.6,150.8,1804.2,152.4,1804.2,154.6z"/>
	<path fill="#FFFFFF" d="M1839,158.5c0-0.8-0.3-1.4-0.9-1.9c-0.6-0.4-1.7-0.8-3.2-1.1c-1.5-0.3-2.7-0.7-3.6-1.2
		c-0.9-0.4-1.5-1-2-1.6c-0.4-0.6-0.6-1.4-0.6-2.2c0-1.4,0.6-2.6,1.8-3.6c1.2-1,2.7-1.5,4.6-1.5c2,0,3.6,0.5,4.8,1.5
		c1.2,1,1.8,2.3,1.8,3.9h-3c0-0.8-0.3-1.5-1-2.1c-0.7-0.6-1.6-0.9-2.6-0.9c-1.1,0-1.9,0.2-2.5,0.7c-0.6,0.5-0.9,1.1-0.9,1.8
		c0,0.7,0.3,1.3,0.9,1.6c0.6,0.4,1.6,0.7,3.1,1c1.5,0.3,2.7,0.7,3.6,1.2c0.9,0.5,1.6,1,2,1.7c0.4,0.6,0.7,1.4,0.7,2.4
		c0,1.6-0.6,2.8-1.9,3.7c-1.2,0.9-2.9,1.4-4.8,1.4c-1.4,0-2.6-0.2-3.7-0.7c-1.1-0.5-1.9-1.2-2.5-2.1c-0.6-0.9-0.9-1.8-0.9-2.9h3
		c0.1,1,0.5,1.8,1.2,2.4c0.7,0.6,1.7,0.9,2.9,0.9c1.1,0,2-0.2,2.7-0.7C1838.6,159.9,1839,159.3,1839,158.5z"/>
	<path fill="#FFFFFF" d="M1849.8,141.5v4.2h3.2v2.3h-3.2v10.8c0,0.7,0.1,1.2,0.4,1.6c0.3,0.3,0.8,0.5,1.5,0.5c0.3,0,0.8-0.1,1.4-0.2
		v2.4c-0.8,0.2-1.5,0.3-2.3,0.3c-1.3,0-2.3-0.4-3-1.2c-0.7-0.8-1-1.9-1-3.4V148h-3.2v-2.3h3.2v-4.2H1849.8z"/>
	<path fill="#FFFFFF" d="M1867.3,161.4c-1.2,1.4-2.9,2-5.1,2c-1.9,0-3.3-0.5-4.2-1.6c-1-1.1-1.5-2.7-1.5-4.8v-11.3h3V157
		c0,2.6,1.1,3.9,3.2,3.9c2.3,0,3.8-0.8,4.5-2.5v-12.6h3v17.4h-2.8L1867.3,161.4z"/>
	<path fill="#FFFFFF" d="M1873.9,154.3c0-2.7,0.6-4.8,1.9-6.4c1.3-1.6,2.9-2.4,5-2.4c2,0,3.6,0.7,4.8,2.1v-9.1h3v24.6h-2.7l-0.1-1.9
		c-1.2,1.5-2.8,2.2-5,2.2c-2,0-3.7-0.8-4.9-2.5c-1.3-1.6-1.9-3.8-1.9-6.5V154.3z M1876.9,154.6c0,2,0.4,3.5,1.2,4.6
		c0.8,1.1,1.9,1.7,3.4,1.7c1.9,0,3.3-0.8,4.1-2.5v-8c-0.9-1.6-2.3-2.5-4.1-2.5c-1.5,0-2.6,0.6-3.4,1.7
		C1877.3,150.8,1876.9,152.4,1876.9,154.6z"/>
	<path fill="#FFFFFF" d="M1900.4,163.4c-2.4,0-4.3-0.8-5.7-2.3c-1.5-1.5-2.2-3.6-2.2-6.2v-0.5c0-1.7,0.3-3.3,1-4.6
		c0.7-1.4,1.6-2.4,2.8-3.2c1.2-0.8,2.5-1.1,3.8-1.1c2.3,0,4,0.7,5.3,2.2c1.3,1.5,1.9,3.6,1.9,6.4v1.2h-11.8c0,1.7,0.5,3.1,1.5,4.1
		c1,1.1,2.2,1.6,3.7,1.6c1,0,1.9-0.2,2.7-0.6c0.7-0.4,1.4-1,1.9-1.7l1.8,1.4C1905.5,162.3,1903.3,163.4,1900.4,163.4z M1900,147.9
		c-1.2,0-2.2,0.4-3,1.3c-0.8,0.9-1.3,2.1-1.5,3.7h8.7v-0.2c-0.1-1.5-0.5-2.7-1.2-3.5C1902.3,148.3,1901.3,147.9,1900,147.9z"/>
	<path fill="#FFFFFF" d="M1913.4,145.7l0.1,2.2c1.3-1.7,3.1-2.5,5.2-2.5c3.7,0,5.5,2.1,5.6,6.2v11.5h-3v-11.5c0-1.3-0.3-2.2-0.9-2.8
		c-0.6-0.6-1.4-0.9-2.6-0.9c-1,0-1.8,0.3-2.5,0.8c-0.7,0.5-1.3,1.2-1.7,2v12.4h-3v-17.4H1913.4z"/>
	<path fill="#FFFFFF" d="M1932.8,141.5v4.2h3.2v2.3h-3.2v10.8c0,0.7,0.1,1.2,0.4,1.6s0.8,0.5,1.5,0.5c0.3,0,0.8-0.1,1.4-0.2v2.4
		c-0.8,0.2-1.5,0.3-2.3,0.3c-1.3,0-2.3-0.4-3-1.2s-1-1.9-1-3.4V148h-3.2v-2.3h3.2v-4.2H1932.8z"/>
	<path fill="#FFFFFF" d="M1949.6,158.5c0-0.8-0.3-1.4-0.9-1.9c-0.6-0.4-1.7-0.8-3.2-1.1c-1.5-0.3-2.7-0.7-3.6-1.2
		c-0.9-0.4-1.5-1-2-1.6c-0.4-0.6-0.6-1.4-0.6-2.2c0-1.4,0.6-2.6,1.8-3.6c1.2-1,2.7-1.5,4.6-1.5c2,0,3.6,0.5,4.8,1.5
		c1.2,1,1.8,2.3,1.8,3.9h-3c0-0.8-0.3-1.5-1-2.1c-0.7-0.6-1.6-0.9-2.6-0.9c-1.1,0-1.9,0.2-2.5,0.7c-0.6,0.5-0.9,1.1-0.9,1.8
		c0,0.7,0.3,1.3,0.9,1.6c0.6,0.4,1.6,0.7,3.1,1c1.5,0.3,2.7,0.7,3.6,1.2c0.9,0.5,1.6,1,2,1.7c0.4,0.6,0.7,1.4,0.7,2.4
		c0,1.6-0.6,2.8-1.9,3.7c-1.2,0.9-2.9,1.4-4.8,1.4c-1.4,0-2.6-0.2-3.7-0.7c-1.1-0.5-1.9-1.2-2.5-2.1c-0.6-0.9-0.9-1.8-0.9-2.9h3
		c0.1,1,0.5,1.8,1.2,2.4c0.7,0.6,1.7,0.9,2.9,0.9c1.1,0,2-0.2,2.7-0.7C1949.3,159.9,1949.6,159.3,1949.6,158.5z"/>
	<path fill="#FFFFFF" d="M1956.5,161.6c0-0.5,0.2-0.9,0.5-1.3c0.3-0.3,0.8-0.5,1.4-0.5s1.1,0.2,1.4,0.5c0.3,0.3,0.5,0.8,0.5,1.3
		c0,0.5-0.2,0.9-0.5,1.2c-0.3,0.3-0.8,0.5-1.4,0.5s-1.1-0.2-1.4-0.5S1956.5,162,1956.5,161.6z"/>
</g>
<path fill="#001E8C" d="M-52.1,744.8c0-2.9,1-4.8,4.4-5.4l6.1-0.9V637.3l-5.8-2c-3.4-1.2-4.4-2.9-4.4-6.1v-2h31.4v111.5l4.1,0.7
	c3.7,0.9,4.4,2.5,4.4,5.4v1.4h-40.3V744.8z M3,688.3c2.4-2.7,5.1-5.6,5.1-7.3c0-1.5-0.8-2.4-4.4-2.7l-2.4-0.2
	c-3.9-0.3-5.1-2.5-5.1-6.1v-1.4h37.9v1.4c0,3.1-1.2,5.3-5.1,5.9l-7,0.9C19.3,681,5.6,694.5,3.7,697l26.9,41.6l4.1,0.7
	c3.6,0.7,4.4,2.5,4.4,5.4v1.4H8.8l-24.1-39.3L3,688.3z"/>
<path fill="#001E8C" d="M46.2,744.8c0-2.9,1.4-4.8,4.8-5.4l5.9-0.7v-59.2l-6.3-1.4c-3.6-1-4.4-2.9-4.4-6.1v-1.4H78v68l7,0.7
	c3.6,0.5,4.2,2.5,4.2,5.4v1.4h-43V744.8z M55.9,642.1c0-6.3,5.3-11.4,11.4-11.4c6.1,0,11.2,5.1,11.2,11.4c0,6.1-5.1,11.2-11.2,11.2
	C61.2,653.3,55.9,648.2,55.9,642.1z"/>
<path fill="#001E8C" d="M96.5,744.8c0-2.9,0.9-4.8,4.4-5.4l6.3-0.7v-59.2l-5.9-1.4c-3.6-1-4.8-2.9-4.8-6.1v-1.4h29.8
	c1.4,7.8,2,16.1,2,24.6c3.4-15.5,12.9-26.7,25.8-26.7h0.7v6.5c0,14.6-3.4,16.8-14.8,16.8c-9.5,0-11.7,2-11.7,17.7v28.6l11.6,0.8
	c3.7,0.3,4.4,2.6,4.4,5.8v1.4H96.5V744.8z"/>
<path fill="#001E8C" d="M199.4,668.6c22.8,0,39.9,13.3,39.9,38.8c0,25.5-18.5,40.8-41.3,40.8c-23,0-40.1-13.9-40.1-39.4
	C157.9,683.2,176.5,668.6,199.4,668.6z M215.6,708.1c0-27.2-5.1-34.3-16.8-34.3c-11.9,0-16.8,7.1-16.8,34.3s4.2,35,16.8,35
	C210.3,743.1,215.6,735.3,215.6,708.1z"/>
<path fill="#001E8C" d="M242.8,744.8c0-2.9,1-4.8,4.8-5.4l6-0.7v-59.2l-6-1.4c-3.6-1-4.8-2.9-4.8-6.1v-1.4h29.7
	c0.8,5.3,1.4,11.7,1.7,18.4c3.2-10.5,13.8-20.4,26.9-20.4c15.3,0,23.5,8.2,23.5,24.8v45.2l6.5,0.7c3.7,0.7,4.8,2.5,4.8,5.4v1.4h-42
	v-1.4c0-2.9,1-4.6,4.8-5.4l4.8-0.7V697c0-12.1-4.2-16.3-11.6-16.3c-8.2,0-17.2,7.8-17.2,24.3v33.7l5.8,0.7c4.1,0.7,4.8,2.5,4.8,5.4
	v1.4h-42.3V744.8z"/>
<rect x="-51.4" y="770.1" fill="none" width="412.5" height="172.5"/>
<text transform="matrix(1 0 0 1 -51.3812 787.3798)"><tspan x="0" y="0" fill="#001E8C" font-family="'Roboto-Medium'" font-size="23">Kiron Open Higher Education gGmbH</tspan><tspan x="0" y="27.6" fill="#001E8C" font-family="'Roboto-Regular'" font-size="23">Am Festungsgraben 1, 10117 Berlin</tspan></text>
<rect x="3081.3" y="57.5" fill="#001E8C" width="1000" height="250"/>
<rect x="3080.4" y="307.5" fill="#0ADCB4" width="1000" height="250"/>
<rect x="3080.4" y="557.5" fill="#FAAF1E" width="1000" height="250"/>
<rect x="3080.4" y="807.5" fill="#EB1446" width="1000" height="250"/>
<rect x="3080.4" y="1057.5" fill="#F0F0F0" width="1000" height="250"/>
<rect x="3080.4" y="1307.5" fill="#969696" width="1000" height="250"/>
<rect x="4127.5" y="88.8" fill="none" width="711.1" height="1468.7"/>
<text transform="matrix(1 0 0 1 4127.4624 130.027)"><tspan x="0" y="0" fill="#001E8C" font-family="'Roboto-Regular'" font-size="55">kiron BLUE</tspan><tspan x="0" y="63" fill="#001E8C" font-family="'Roboto-Regular'" font-size="55">RGB</tspan><tspan x="0" y="126" fill="#001E8C" font-family="'Roboto-Regular'" font-size="55">0 / 30 / 140</tspan><tspan x="0" y="252" fill="#0ADCB4" font-family="'Roboto-Regular'" font-size="55">kiron Green</tspan><tspan x="0" y="315" fill="#0ADCB4" font-family="'Roboto-Regular'" font-size="55">RGB</tspan><tspan x="0" y="378" fill="#0ADCB4" font-family="'Roboto-Regular'" font-size="55">10 / 220 / 180</tspan><tspan x="0" y="504" fill="#FAAF1E" font-family="'Roboto-Regular'" font-size="55">kiron Orange</tspan><tspan x="0" y="567" fill="#FAAF1E" font-family="'Roboto-Regular'" font-size="55">RGB</tspan><tspan x="0" y="630" fill="#FAAF1E" font-family="'Roboto-Regular'" font-size="55">250 / 175 / 30</tspan><tspan x="0" y="756" fill="#EB1446" font-family="'Roboto-Regular'" font-size="55">kiron Red</tspan><tspan x="0" y="819" fill="#EB1446" font-family="'Roboto-Regular'" font-size="55">RGB</tspan><tspan x="0" y="882" fill="#EB1446" font-family="'Roboto-Regular'" font-size="55">235 / 20 / 70 </tspan><tspan x="0" y="1008" fill="#1D1D1B" font-family="'Roboto-Regular'" font-size="55">kiron Light Grey</tspan><tspan x="0" y="1071" fill="#1D1D1B" font-family="'Roboto-Regular'" font-size="55">RGB</tspan><tspan x="0" y="1134" fill="#1D1D1B" font-family="'Roboto-Regular'" font-size="55">240 / 240 / 240</tspan><tspan x="0" y="1260" fill="#1D1D1B" font-family="'Roboto-Regular'" font-size="55">kiron Dark Grey</tspan><tspan x="0" y="1323" fill="#1D1D1B" font-family="'Roboto-Regular'" font-size="55">RGB</tspan><tspan x="0" y="1386" fill="#1D1D1B" font-family="'Roboto-Regular'" font-size="55">150 / 150 / 150</tspan></text>
<path fill="#FFFFFF" d="M892.6,975.2c0-5.3,1.9-8.7,8.1-9.9l11.2-1.6v-185l-10.6-3.7c-6.2-2.2-8.1-5.3-8.1-11.2v-3.7h57.5V964
	l7.5,1.2c6.8,1.6,8.1,4.7,8.1,9.9v2.5h-73.7V975.2z M993.3,872c4.4-5,9.3-10.3,9.3-13.4c0-2.8-1.6-4.4-8.1-5l-4.4-0.3
	c-7.1-0.6-9.3-4.7-9.3-11.2v-2.5h69.3v2.5c0,5.6-2.2,9.6-9.3,10.9l-12.7,1.6c-5,4-30.2,28.6-33.6,33.3l49.1,76.2l7.5,1.2
	c6.5,1.2,8.1,4.7,8.1,9.9v2.5h-55.3l-44.1-71.8L993.3,872z"/>
<path fill="#001E8C" d="M1521,621.4v500h500v-500H1521z M1762.2,977.7h-73.7v-2.5c0-5.3,1.9-8.7,8.1-9.9l11.2-1.6v-185l-10.6-3.7
	c-6.2-2.2-8.1-5.3-8.1-11.2v-3.7h57.5V964l7.5,1.2c6.8,1.6,8.1,4.7,8.1,9.9V977.7z M1855.1,977.7h-55.3l-44.1-71.8l33.6-33.9
	c4.4-5,9.3-10.3,9.3-13.4c0-2.8-1.6-4.4-8.1-5l-4.4-0.3c-7.1-0.6-9.3-4.7-9.3-11.2v-2.5h69.3v2.5c0,5.6-2.2,9.6-9.3,10.9l-12.7,1.6
	c-5,4-30.2,28.6-33.6,33.3l49.1,76.2l7.5,1.2c6.5,1.2,8.1,4.7,8.1,9.9V977.7z"/>
</svg>
