<?xml version="1.0" encoding="utf-8"?>
<!-- Generator: Adobe Illustrator 18.1.0, SVG Export Plug-In . SVG Version: 6.00 Build 0)  -->
<svg version="1.1" id="Ebene_1" xmlns="http://www.w3.org/2000/svg" xmlns:xlink="http://www.w3.org/1999/xlink" x="0px" y="0px"
	 viewBox="0 0 387.8 121" enable-background="new 0 0 387.8 121" xml:space="preserve">
<path fill="#FFFFFF" d="M0,117.6c0-2.9,1-4.8,4.4-5.4l6.1-0.9V10.2l-5.8-2C1.4,7,0.3,5.3,0.3,2V0h31.4v111.5l4.1,0.7
	c3.7,0.9,4.4,2.5,4.4,5.4v1.4H0V117.6z M55.1,61.2c2.4-2.7,5.1-5.6,5.1-7.3c0-1.5-0.8-2.4-4.4-2.7L53.4,51c-3.9-0.3-5.1-2.5-5.1-6.1
	v-1.4h37.9v1.4c0,3.1-1.2,5.3-5.1,5.9l-7,0.9c-2.7,2.2-16.5,15.6-18.4,18.2l26.9,41.6l4.1,0.7c3.6,0.7,4.4,2.5,4.4,5.4v1.4H60.9
	L36.7,79.7L55.1,61.2z"/>
<path fill="#FFFFFF" d="M98.3,117.6c0-2.9,1.4-4.8,4.8-5.4l5.9-0.7V52.4l-6.3-1.4c-3.6-1-4.4-2.9-4.4-6.1v-1.4h31.8v68l7,0.7
	c3.6,0.5,4.2,2.5,4.2,5.4v1.4h-43V117.6z M108,15c0-6.3,5.3-11.4,11.4-11.4c6.1,0,11.2,5.1,11.2,11.4c0,6.1-5.1,11.2-11.2,11.2
	C113.2,26.2,108,21.1,108,15z"/>
<path fill="#FFFFFF" d="M148.6,117.6c0-2.9,0.9-4.8,4.4-5.4l6.3-0.7V52.4l-5.9-1.4c-3.6-1-4.8-2.9-4.8-6.1v-1.4h29.8
	c1.4,7.8,2,16.1,2,24.6c3.4-15.5,12.9-26.7,25.8-26.7h0.7v6.5c0,14.6-3.4,16.8-14.8,16.8c-9.5,0-11.7,2-11.7,17.7V111l11.6,0.8
	c3.7,0.3,4.4,2.6,4.4,5.8v1.4h-47.8V117.6z"/>
<path fill="#FFFFFF" d="M251.5,41.5c22.8,0,39.9,13.3,39.9,38.8c0,25.5-18.5,40.8-41.3,40.8c-23,0-40.1-13.9-40.1-39.4
	C210,56.1,228.5,41.5,251.5,41.5z M267.6,80.9c0-27.2-5.1-34.3-16.8-34.3c-11.9,0-16.8,7.1-16.8,34.3s4.2,35,16.8,35
	C262.4,115.9,267.6,108.1,267.6,80.9z"/>
<path fill="#FFFFFF" d="M294.8,117.6c0-2.9,1-4.8,4.8-5.4l6-0.7V52.4l-6-1.4c-3.6-1-4.8-2.9-4.8-6.1v-1.4h29.8
	c0.8,5.3,1.4,11.7,1.7,18.4c3.2-10.5,13.8-20.4,26.9-20.4c15.3,0,23.5,8.2,23.5,24.8v45.2l6.5,0.7c3.7,0.7,4.8,2.5,4.8,5.4v1.4h-42
	v-1.4c0-2.9,1-4.6,4.8-5.4l4.8-0.7V69.9c0-12.1-4.2-16.3-11.6-16.3c-8.2,0-17.2,7.8-17.2,24.3v33.7l5.8,0.7c4.1,0.7,4.8,2.5,4.8,5.4
	v1.4h-42.3V117.6z"/>
</svg>
